# xmcd
#
# Track frame offsets:
#	150
#	11517
#	23547
#	38450
#	50822
#	62250
#	76315
#	92529
#	105945
#	117490
#	131670
#
# Disc length: 1968 seconds
#
# Revision: 0
# Processed by: cddbd v1.4b42PL1 Copyright (c) Steve Scherf et al.
# Submitted via: EasyCDDAExtractor 4.5.0.2
#
DISCID=7707ae0b
DTITLE=Pam MacBeth - Cowgirl State of Mind
DYEAR=1999
DGENRE=Country
TTITLE0=Cowgirl State of Mind
TTITLE1=You Take My Breath Away
TTITLE2=Strong Enough To Fly
TTITLE3=It's Your Turn
TTITLE4=Right Were I Belong
TTITLE5=Country Crazy
TTITLE6=Woman Of Stone
TTITLE7=Some Were Born To Run
TTITLE8=Change Your Mind
TTITLE9=You Can't Hurt Me Anymore
TTITLE10=The Greatest Gift
EXTD=
EXTT0=
EXTT1=
EXTT2=
EXTT3=
EXTT4=
EXTT5=
EXTT6=
EXTT7=
EXTT8=
EXTT9=
EXTT10=
PLAYORDER=
